<svg width="21" height="19" viewBox="0 0 21 19" fill="none" xmlns="http://www.w3.org/2000/svg">
<path d="M1.02877 0.0292969L19.2038 0.0292969C19.4716 0.0292969 19.7285 0.135678 19.9178 0.325039C20.1072 0.514399 20.2136 0.771227 20.2136 1.03902V17.1946C20.2136 17.4624 20.1072 17.7193 19.9178 17.9086C19.7285 18.098 19.4716 18.2044 19.2038 18.2044H1.02877C0.760973 18.2044 0.504145 18.098 0.314785 17.9086C0.125424 17.7193 0.019043 17.4624 0.019043 17.1946L0.019043 1.03902C0.019043 0.771227 0.125424 0.514399 0.314785 0.325039C0.504145 0.135678 0.760973 0.0292969 1.02877 0.0292969ZM18.1941 4.30852L10.189 11.4776L2.0385 4.2863L2.0385 16.1849H18.1941V4.30852ZM2.55447 2.04875L10.1779 8.77555L17.6913 2.04875L2.55447 2.04875Z" fill="white"/>
</svg>
