<svg width="50" height="48" viewBox="0 0 50 48" fill="none" xmlns="http://www.w3.org/2000/svg">
<rect width="50" height="48" rx="24" fill="#4B0601"/>
<path d="M14.7826 22.7087C13.9542 22.7087 13.2826 23.3803 13.2826 24.2087C13.2826 25.0372 13.9542 25.7087 14.7826 25.7087L14.7826 22.7087ZM36.7128 25.2694C37.2986 24.6836 37.2986 23.7339 36.7128 23.1481L27.1669 13.6021C26.5811 13.0164 25.6313 13.0164 25.0456 13.6021C24.4598 14.1879 24.4598 15.1377 25.0456 15.7235L33.5308 24.2087L25.0456 32.694C24.4598 33.2798 24.4598 34.2296 25.0456 34.8153C25.6313 35.4011 26.5811 35.4011 27.1669 34.8153L36.7128 25.2694ZM14.7826 25.7087L35.6522 25.7087L35.6522 22.7087L14.7826 22.7087L14.7826 25.7087Z" fill="white"/>
</svg>
