<svg width="50" height="48" viewBox="0 0 50 48" fill="none" xmlns="http://www.w3.org/2000/svg">
<rect width="50" height="48" rx="24" transform="matrix(-1 0 0 1 50 0)" fill="#4B0601"/>
<path d="M35.2175 22.7087C36.046 22.7087 36.7175 23.3803 36.7175 24.2087C36.7175 25.0372 36.046 25.7087 35.2175 25.7087L35.2175 22.7087ZM13.2873 25.2694C12.7015 24.6836 12.7015 23.7339 13.2873 23.1481L22.8332 13.6021C23.419 13.0164 24.3688 13.0164 24.9546 13.6021C25.5404 14.1879 25.5404 15.1377 24.9546 15.7235L16.4693 24.2087L24.9546 32.694C25.5404 33.2798 25.5404 34.2296 24.9546 34.8153C24.3688 35.4011 23.419 35.4011 22.8332 34.8153L13.2873 25.2694ZM35.2175 25.7087L14.348 25.7087L14.348 22.7087L35.2175 22.7087L35.2175 25.7087Z" fill="white"/>
</svg>
